<svg xmlns="http://www.w3.org/2000/svg" viewBox="0 0 1024 480" preserveAspectRatio="xMidYMax slice">
  <defs>
    <linearGradient id="mist" x1="0" y1="0" x2="1" y2="1"><stop offset="0" stop-color="#dfe3ea" stop-opacity=".0"/><stop offset=".5" stop-color="#dde1e9" stop-opacity=".7"/><stop offset="1" stop-color="#e9ecf2" stop-opacity=".0"/></linearGradient>
    <linearGradient id="swl" x1="0" y1="0" x2="1" y2="1"><stop offset="0" stop-color="#d9dde5"/><stop offset="1" stop-color="#f0f2f6"/></linearGradient>
    <linearGradient id="swr" x1="1" y1="0" x2="0" y2="1"><stop offset="0" stop-color="#d4d9e1"/><stop offset="1" stop-color="#f0f2f6"/></linearGradient>
  </defs>
  <!-- neblina detras del telefono y las fotos -->
  <ellipse cx="640" cy="170" rx="330" ry="150" fill="url(#mist)"/>
  <path d="M430 330c60-60 150-86 250-70 70 11 130 4 200-30 60-30 110-30 144-10v200H430z" fill="#e4e7ee" opacity=".55"/>
  <!-- lineas finas arriba a la derecha -->
  <g fill="none" stroke="#c9ced7" stroke-width=".8" opacity=".5">
    <path d="M1024 40c-60 6-120 34-156 86"/><path d="M1024 54c-56 8-110 36-144 82"/><path d="M1024 68c-52 8-100 34-132 78"/>
  </g>
  <!-- ondas inferiores -->
  <path d="M0 316c52 6 98 22 140 52 28 20 56 40 90 66 14 10 28 26 38 40H0z" fill="url(#swl)"/>
  <path d="M0 348c46 4 82 20 118 44 20 14 40 30 64 44 10 8 20 24 28 40H0z" fill="#fff" opacity=".55"/>
  <path d="M1024 330c-60 20-112 60-150 112-8 12-14 24-20 38h170z" fill="url(#swr)"/>
  <path d="M1024 366c-40 18-74 46-98 76-6 12-12 24-16 38h114z" fill="#fff" opacity=".5"/>
</svg>
